# AST/ASF file generated using VICON BodyLanguage
# -----------------------------------------------
:version 1.10
:name VICON
:units
  mass 1.0
  length 0.45
  angle deg
:documentation
   .ast/.asf automatically generated from VICON data using
   VICON BodyBuilder and BodyLanguage model FoxedUp or BRILLIANT.MOD
:root
   order TX TY TZ RX RY RZ
   axis XYZ
   position 0 0 0  
   orientation 0 0 0 
:bonedata
  begin
     id 1 
     name lhipjoint
     direction 0.584852 -0.759097 0.285867 
     length 2.43633 
     axis 0 0 0  XYZ
  end
  begin
     id 2 
     name lfemur
     direction 0.34202 -0.939693 0  
     length 7.14704  
     axis 0 0 20  XYZ
    dof rx ry rz
    limits (-160.0 20.0)
           (-70.0 70.0)
           (-60.0 70.0)
  end
  begin
     id 3 
     name ltibia
     direction 0.342022 -0.939692 0   
     length 7.68483   
     axis 0 0 20   XYZ
    dof rx
    limits (-10.0 170.0)
  end
  begin
     id 4 
     name lfoot
     direction 0.0999605 -0.274639 0.956337   
     length 2.40452   
     axis -90 7.62852e-016 20   XYZ
    dof rx rz
    limits (-45.0 90.0)
           (-70.0 20.0)
  end
  begin
     id 5 
     name ltoes
     direction 1.53468e-011 -4.21881e-011 1   
     length 1.19837   
     axis -90 7.62852e-016 20   XYZ
    dof rx
    limits (-90.0 20.0)
  end
  begin
     id 6 
     name rhipjoint
     direction -0.569886 -0.769002 0.289597   
     length 2.40495  
     axis 0 0 0  XYZ 
  end
  begin
     id 7 
     name rfemur
     direction -0.34202 -0.939693 0   
     length 7.45086   
     axis 0 0 -20   XYZ
    dof rx ry rz
    limits (-160.0 20.0)
           (-70.0 70.0)
           (-70.0 60.0)
  end
  begin
     id 8 
     name rtibia
     direction -0.34202 -0.939693 0   
     length 7.76831   
     axis 0 0 -20   XYZ
    dof rx
    limits (-10.0 170.0)
 end
 begin
     id 9 
     name rfoot
     direction -0.0798572 -0.219406 0.97236   
     length 2.35911  
     axis -90 -7.62852e-016 -20   XYZ
    dof rx rz
    limits (-45.0 90.0)
           (-20.0 70.0)
  end
  begin
     id 10 
     name rtoes
     direction -1.53469e-011 -4.21728e-011 1   
     length 1.18261   
     axis -90 -7.62852e-016 -20   XYZ
    dof rx
    limits (-90.0 20.0)
  end
  begin
     id 11 
     name lowerback
     direction 0.0242088 0.999437 0.0232389   
     length 2.1561   
     axis 0 0 0   XYZ
    dof rx ry rz
    limits (-20.0 45.0)
           (-30.0 30.0)
           (-30.0 30.0)
  end
  begin
     id 12 
     name upperback
     direction -0.0356893 0.999013 -0.0264323   
     length 2.14431   
     axis 0 0 0   XYZ
    dof rx ry rz
    limits (-20.0 45.0)
           (-30.0 30.0)
           (-30.0 30.0)
  end
  begin
     id 13 
     name thorax
     direction -0.0472163 0.998194 -0.0371284   
     length 2.16169   
     axis 0 0 0   XYZ
    dof rx ry rz
    limits (-20.0 45.0)
           (-30.0 30.0)
           (-30.0 30.0)
  end
  begin
     id 14 
     name lowerneck
     direction 0.00863244 0.999921 0.00911972   
     length 1.58651   
     axis 0 0 0   XYZ
    dof rx ry rz
    limits (-20.0 45.0)
           (-30.0 30.0)
           (-30.0 30.0)
  end
  begin
     id 15 
     name upperneck
     direction 0.149523 0.979068 -0.138086   
     length 1.57486   
     axis 0 0 0   XYZ
    dof rx ry rz
    limits (-20.0 45.0)
           (-30.0 30.0)
           (-30.0 30.0)
  end
  begin
     id 16
     name head
     direction 0.0445219 0.997708 -0.0509576  
     length 1.6019  
     axis 0 0 0   XYZ
    dof rx ry rz
    limits (-20.0 45.0)
           (-30.0 30.0)
           (-30.0 30.0)
  end
  begin
     id 17 
     name lclavicle
     direction 0.911271 0.381667 -0.154644  
     length 3.80848  
     axis 0 0 0   XYZ
    dof ry rz
    limits (-20.0 10.0)
           (0.0 20.0)
  end
  begin
     id 18 
     name lhumerus
     direction 1 -4.49003e-011 2.1308e-027   
     length 5.19069   
     axis 180 -30 -90   XYZ
    dof rx ry rz
    limits (-60.0 90.0)
           (-90.0 90.0)
           (-90.0 90.0)
  end
  begin
     id 19
     name lradius
     direction 1 -4.48914e-011 4.01554e-027   
     length 3.30016   
     axis 180 -30 -90   XYZ
    dof rx
    limits (-10.0 170.0)
  end
  begin
     id 20
     name lwrist
     direction 1 -4.49003e-011 1.1934e-026   
     length 1.65008   
     axis -8.46377e-015 90 90   XYZ
    dof ry
    limits (-180.0 0.0)
 end
  begin
     id 21 
     name lhand
     direction 1 -4.49034e-011 2.38659e-026   
     length 0.707698   
     axis -1.52313e-014 90 90   XYZ
    dof rx rz
    limits (-90.0 90.0)
           (-45.0 45.0)
  end
  begin
     id 22 
     name lfingers
     direction 1 -4.48691e-011 4.77775e-026   
     length 0.570564   
     axis -3.04623e-014 90 90   XYZ
    dof rx
    limits (0.0 90.0)
  end
  begin
     id 23
     name lthumb
     direction 0.707107 -6.34832e-011 0.707107   
     length 0.819219   
     axis -90 45 -1.62303e-014   XYZ
    dof rx rz
    limits (-45.0 45.0)
           (-45.0 45.0)
  end
  begin
     id 24 
     name rclavicle
     direction -0.815579 0.573708 -0.0754329   
     length 3.54371  
     axis 0 0 0   XYZ 
    dof ry rz
    limits (-10.0 20.0)
           (-20.0 0.0)
  end
  begin
     id 25 
     name rhumerus
     direction -1 -4.48956e-011 3.05351e-028  
     length 5.23924   
     axis 180 30 90   XYZ
    dof rx ry rz
    limits (-90.0 60.0)
           (-90.0 90.0)
           (-90.0 90.0)
  end
  begin
     id 26 
     name rradius
     direction -1 -4.49013e-011 3.53849e-027   
     length 3.32953   
     axis 180 30 90   XYZ
    dof rx
    limits (-10.0 170.0)
  end
  begin
     id 27 
     name rwrist
     direction -1 -4.48901e-011 1.19374e-026   
     length 1.66477   
     axis -8.46377e-015 -90 -90   XYZ
    dof ry
    limits (-180.0 0.0)
  end
  begin
     id 28
     name rhand
     direction -1 -4.48877e-011 2.38764e-026   
     length 0.607414   
     axis -1.52313e-014 -90 -90   XYZ
    dof rx rz
    limits (-90.0 90.0)
           (-45.0 45.0)
  end
  begin
     id 29
     name rfingers
     direction -1 -4.48882e-011 4.77521e-026   
     length 0.489712   
     axis -3.04623e-014 -90 -90   XYZ
    dof rx
    limits (0.0 90.0)
  end
  begin
     id 30
     name rthumb
     direction -0.707107 -6.34974e-011 0.707107   
     length 0.703132   
     axis -90 -45 1.62303e-014   XYZ
    dof rx rz
    limits (-45.0 45.0)
           (-45.0 45.0)
  end
:hierarchy
  begin
    root lhipjoint rhipjoint lowerback
    lhipjoint lfemur
    lfemur ltibia
    ltibia lfoot
    lfoot ltoes
    rhipjoint rfemur
    rfemur rtibia
    rtibia rfoot
    rfoot rtoes
    lowerback upperback
    upperback thorax
    thorax lowerneck lclavicle rclavicle
    lowerneck upperneck
    upperneck head
    lclavicle lhumerus
    lhumerus lradius
    lradius lwrist
    lwrist lhand lthumb
    lhand lfingers
    rclavicle rhumerus
    rhumerus rradius
    rradius rwrist
    rwrist rhand rthumb
    rhand rfingers
  end

#!OML:ASF E:\VariousWalksJay\Project 1\Capture day 1\Session 1\Actor2.ASF
:FULLY-SPECIFIED
:DEGREES
306
root 27.3489 15.2967 49.4186 186.28 -47.8799 -174.509
lowerback 19.4631 -0.0921975 5.27139
upperback 15.651 -1.8148 -0.00836253
thorax 6.18808 -1.39259 -2.82094
lowerneck 5.108 -4.07133 -4.15702
upperneck -12.2603 -4.53777 15.4088
head -3.99044 -3.12863 5.69074
rclavicle -2.82274e-014 -3.49861e-014
rhumerus -8.55721 19.5738 -71.2639
rradius 72.6409
rwrist -0.926624
rhand -7.56423 -9.03095
rfingers 7.12502
rthumb 18.3281 -38.1875
lclavicle -2.82274e-014 -3.49861e-014
lhumerus -5.07106 -16.0043 66.9195
lradius 71.3788
lwrist 9.04145
lhand -6.26765 -8.90876
lfingers 7.12502
lthumb 19.575 20.1258
rfemur -45.4486 -8.58179 25.2689
rtibia 60.7267
rfoot -22.1894 -10.4421
rtoes -19.2418
lfemur -45.2782 12.5373 -20.0944
ltibia 60.5578
lfoot -25.954 1.65372
ltoes -3.5501
307
root 27.3373 15.2984 49.4195 186.477 -47.8294 -174.631
lowerback 19.5346 -0.14743 5.23939
upperback 15.5774 -1.86429 -0.150718
thorax 6.05645 -1.40992 -2.94419
lowerneck 5.01342 -3.97493 -4.30136
upperneck -12.0159 -4.43224 15.5083
head -3.90494 -3.06182 5.73165
rclavicle -4.8901e-014 -2.40529e-014
rhumerus -8.68156 19.6367 -71.4551
rradius 72.8489
rwrist -0.749403
rhand -6.79967 -8.90759
rfingers 7.12502
rthumb 19.0635 -37.9933
lclavicle -4.8901e-014 -2.40529e-014
lhumerus -5.27374 -15.9 66.7748
lradius 71.5616
lwrist 9.00143
lhand -6.35581 -8.81783
lfingers 7.12502
lthumb 19.4903 20.2253
rfemur -45.5374 -8.45288 25.1204
rtibia 60.7317
rfoot -22.2504 -10.5814
rtoes -19.5199
lfemur -45.3982 12.6409 -20.2887
ltibia 60.614
lfoot -26.001 1.60779
ltoes -3.50513
308
root 27.3291 15.2894 49.422 186.427 -47.6364 -174.3
lowerback 19.6474 -0.194095 5.44857
upperback 15.4443 -1.85904 -0.257332
thorax 5.8437 -1.38209 -3.16875
lowerneck 5.0476 -3.89367 -4.22185
upperneck -11.8689 -4.33163 15.4568
head -3.88149 -3.00684 5.69491
rclavicle 1.86858e-014 3.73715e-014
rhumerus -8.59939 19.9868 -71.6028
rradius 72.7651
rwrist -0.725208
rhand -6.99075 -8.99655
rfingers 7.12502
rthumb 18.8797 -38.1003
lclavicle 1.86858e-014 3.73715e-014
lhumerus -5.47573 -15.7268 66.5963
lradius 71.6893
lwrist 8.991
lhand -6.52343 -8.75008
lfingers 7.12502
lthumb 19.3291 20.3093
rfemur -45.7852 -8.32326 25.3776
rtibia 60.7631
rfoot -22.244 -10.4472
rtoes -19.3106
lfemur -45.697 12.83 -20.126
ltibia 60.7445
lfoot -26.0484 1.69292
ltoes -3.44592
309
root 27.3187 15.2815 49.4233 186.459 -47.5553 -174.162
lowerback 19.6587 -0.213526 5.53843
upperback 15.416 -1.8632 -0.334792
thorax 5.80373 -1.37121 -3.30072
lowerneck 4.94958 -3.8326 -4.38654
upperneck -11.6951 -4.26808 15.5861
head -3.81107 -2.96516 5.75275
rclavicle 5.36719e-014 -1.14898e-013
rhumerus -8.65069 20.0045 -71.7191
rradius 72.97
rwrist -0.625719
rhand -6.53782 -8.91104
rfingers 7.12502
rthumb 19.3153 -37.9718
lclavicle 5.36719e-014 -1.14898e-013
lhumerus -5.51175 -15.5929 66.4673
lradius 71.8167
lwrist 8.9926
lhand -6.41203 -8.77684
lfingers 7.12502
lthumb 19.4362 20.2718
rfemur -45.9671 -8.36331 25.4952
rtibia 60.8036
rfoot -22.15 -10.3113
rtoes -19.3675
lfemur -45.8949 12.9126 -20.0869
ltibia 60.8602
lfoot -26.1093 1.65799
ltoes -3.35521
310
root 27.3102 15.2853 49.4105 186.357 -47.6886 -174.119
lowerback 19.7771 -0.229856 5.45992
upperback 15.4572 -1.90183 -0.352306
thorax 5.78718 -1.40088 -3.26816
lowerneck 4.96445 -3.81307 -4.39512
upperneck -11.6895 -4.24091 15.6127
head -3.8139 -2.95366 5.76222
rclavicle 2.18663e-014 4.41302e-014
rhumerus -8.23165 21.0056 -71.2646
rradius 72.8021
rwrist -1.27059
rhand -7.5839 -9.23031
rfingers 7.12502
rthumb 18.3092 -38.3886
lclavicle 2.18663e-014 4.41302e-014
lhumerus -5.46606 -15.5377 66.346
lradius 71.9212
lwrist 9.03864
lhand -6.49759 -8.678
lfingers 7.12502
lthumb 19.354 20.3789
rfemur -45.8003 -8.49106 25.5403
rtibia 60.8157
rfoot -22.3312 -10.3015
rtoes -19.1628
lfemur -45.7796 12.8997 -20.0444
ltibia 60.9141
lfoot -26.3045 1.60781
ltoes -2.75986
311
root 27.3005 15.2834 49.4058 186.276 -47.7023 -174.015
lowerback 20.0945 -0.29909 5.60179
upperback 15.3464 -1.93138 -0.516708
thorax 5.49258 -1.39952 -3.50725
lowerneck 4.91495 -3.76772 -4.23554
upperneck -11.4686 -4.18584 15.6435
head -3.74933 -2.92497 5.7345
rclavicle -3.81667e-014 -4.45278e-014
rhumerus -8.62076 20.3879 -71.9113
rradius 72.9797
rwrist -0.581449
rhand -6.82173 -8.94344
rfingers 7.12502
rthumb 19.0423 -38.0313
lclavicle -3.81667e-014 -4.45278e-014
lhumerus -5.64463 -15.6071 66.0568
lradius 72.1122
lwrist 9.11906
lhand -6.58721 -8.58075
lfingers 7.12502
lthumb 19.2678 20.4847
rfemur -45.7765 -8.57301 25.6192
rtibia 60.85
rfoot -22.6869 -10.1387
rtoes -18.2069
lfemur -45.7926 12.9618 -20.0142
ltibia 60.9906
lfoot -26.4438 1.72957
ltoes -3.02106
312
root 27.2909 15.2852 49.3929 186.22 -47.8512 -173.991
lowerback 19.9932 -0.240278 5.42434
upperback 15.5022 -1.92357 -0.437923
thorax 5.72646 -1.4168 -3.33304
lowerneck 4.86443 -3.76046 -4.30213
upperneck -11.533 -4.17322 15.6866
head -3.75795 -2.92054 5.75976
rclavicle 1.35174e-014 0
rhumerus -8.54384 20.0424 -71.9119
rradius 73.1409
rwrist -0.224185
rhand -7.04513 -8.78873
rfingers 7.12502
rthumb 18.8274 -37.8976
lclavicle 1.35174e-014 0
lhumerus -5.39627 -15.5351 66.0383
lradius 72.1947
lwrist 9.17821
lhand -6.63299 -8.49874
lfingers 7.12502
lthumb 19.2238 20.5711
rfemur -45.6625 -8.70307 25.6446
rtibia 60.8789
rfoot -23.3499 -10.0023
rtoes -16.5292
lfemur -45.7284 12.9287 -19.9911
ltibia 61.0537
lfoot -26.6285 1.67304
ltoes -2.31653
